#Comment line ignore any data following # character 
#Hierarchical Translation and Rotation (.htr) file 
[Header]	
#Header keywords are followed by a single value 
FileType HTR		#Single word string
DataType HTRS		#Translation followed by rotation and scale data
FileVersion 1		#integer
NumSegments 23		#integer
NumFrames 4		#integer
DataFrameRate 30		#integer, data frame rate in this file
EulerRotationOrder ZYX
CalibrationUnits mm
RotationUnits Degrees
GlobalAxisofGravity Y
BoneLengthAxis Y
ScaleFactor 1.00
[SegmentNames&Hierarchy]
#CHILD	PARENT
MASTER GLOBAL
weapon MASTER
arm_lock_bottom_part1 weapon
arm_lock_bottom_part2 weapon
arm_lock_bottom_part3 weapon
arm_lock_bottom_part4 weapon
arm_lock_top_part1 weapon
arm_lock_top_part2 weapon
arm_lock_top_part3 weapon
front_lower_left_part1 weapon
front_lower_right_part1 weapon
front_top_left_part weapon
front_top_right_part1 weapon
scope_part1 weapon
scope_part2 weapon
front_lower_left_part2 front_lower_left_part1
front_lower_left_part3 front_lower_left_part2
front_lower_right_part2 front_lower_right_part1
front_lower_right_part3 front_lower_right_part2
front_top_left_part2 front_top_left_part
front_top_left_part3 front_top_left_part2
front_top_right_part2 front_top_right_part1
front_top_right_part3 front_top_right_part2
[BasePosition]
#SegmentName Tx, Ty, Tz, Rx, Ry, Rz, BoneLength
MASTER 0.000000 0.000000 0.000000 -90.000000 0.000000 0.000000 10.000000 
weapon 0.000000 0.000000 0.000000 0.000000 0.000000 0.000000 10.000000 
arm_lock_bottom_part1 0.000000 0.000000 0.000000 0.000000 0.000000 0.000000 10.000000 
arm_lock_bottom_part2 0.000000 0.000000 0.000000 0.000000 0.000000 0.000000 10.000000 
arm_lock_bottom_part3 0.000000 0.000000 0.000000 0.000000 0.000000 0.000000 10.000000 
arm_lock_bottom_part4 0.000000 0.000000 0.000000 0.000000 0.000000 0.000000 10.000000 
arm_lock_top_part1 0.000000 0.000000 0.000000 0.000000 0.000000 0.000000 10.000000 
arm_lock_top_part2 0.000000 0.000000 0.000000 0.000000 0.000000 0.000000 10.000000 
arm_lock_top_part3 0.000000 0.000000 0.000000 0.000000 0.000000 0.000000 10.000000 
front_lower_left_part1 0.000000 0.000000 0.000000 0.000000 0.000000 0.000000 10.000000 
front_lower_right_part1 0.000000 0.000000 0.000000 0.000000 0.000000 0.000000 10.000000 
front_top_left_part 0.000000 0.000000 0.000000 0.000000 0.000000 0.000000 10.000000 
front_top_right_part1 0.000000 0.000000 0.000000 0.000000 0.000000 0.000000 10.000000 
scope_part1 0.000000 0.000000 0.000000 0.000000 0.000000 0.000000 10.000000 
scope_part2 0.000000 0.000000 0.000000 0.000000 0.000000 0.000000 10.000000 
front_lower_left_part2 0.000000 0.000000 0.000000 0.000000 0.000000 0.000000 10.000000 
front_lower_left_part3 0.000000 0.000000 0.000000 0.000000 0.000000 0.000000 10.000000 
front_lower_right_part2 0.000000 0.000000 0.000000 0.000000 0.000000 0.000000 10.000000 
front_lower_right_part3 0.000000 0.000000 0.000000 0.000000 0.000000 0.000000 10.000000 
front_top_left_part2 0.000000 0.000000 0.000000 0.000000 0.000000 0.000000 10.000000 
front_top_left_part3 0.000000 0.000000 0.000000 0.000000 0.000000 0.000000 10.000000 
front_top_right_part2 0.000000 0.000000 0.000000 0.000000 0.000000 0.000000 10.000000 
front_top_right_part3 0.000000 0.000000 0.000000 0.000000 0.000000 0.000000 10.000000 
#Beginning of Data. Separated by tabs
#Fr	Tx	Ty	Tz	Rx	Ry	Rz	SF
[MASTER]
71 0.000000 -0.000019 0.000002 0.002458 -0.000000 0.000000 0.000019
72 0.000000 -0.000019 0.000002 0.002458 -0.000000 0.000000 0.000019
73 0.000000 -0.000019 0.000002 0.002458 -0.000000 0.000000 0.000019
74 0.000000 -0.000019 0.000002 0.002458 -0.000000 0.000000 0.000019
[weapon]
71 10.182457 -168.977890 -13.084259 -0.002473 -0.000000 -0.000020 169.789307
72 10.182457 -168.978043 -13.084106 -0.002473 -0.000000 -0.000020 169.789444
73 10.182476 -168.977966 -13.084183 -0.002473 -0.000000 -0.000020 169.789368
74 10.182476 -168.977966 -13.084030 -0.002473 -0.000000 -0.000020 169.789352
[arm_lock_bottom_part1]
71 -48.820034 98.566185 -83.498901 179.998215 -0.001518 9.389182 138.096909
72 -48.820034 98.566185 -83.498901 179.998215 -0.001518 9.389182 138.096909
73 -48.820034 98.566185 -83.498901 179.998215 -0.001518 9.389182 138.096909
74 -48.820034 98.566185 -83.498901 179.998215 -0.001518 9.389182 138.096909
[arm_lock_bottom_part2]
71 -49.022778 58.781982 -78.526520 179.998245 -0.001562 6.578084 109.658417
72 -49.022778 58.781982 -78.526520 179.998245 -0.001562 6.578086 109.658417
73 -49.022778 58.781982 -78.526520 179.998245 -0.001562 6.578084 109.658417
74 -49.022778 58.781982 -78.526520 179.998245 -0.001562 6.578084 109.658417
[arm_lock_bottom_part3]
71 -51.266434 -16.798199 -66.920387 179.998291 -0.001596 4.325218 85.957924
72 -51.266434 -16.798199 -66.920387 179.998291 -0.001596 4.325218 85.957924
73 -51.266434 -16.798199 -66.920387 179.998291 -0.001596 4.325218 85.957924
74 -51.266434 -16.798199 -66.920387 179.998291 -0.001596 4.325218 85.957924
[arm_lock_bottom_part4]
71 -40.078083 -93.503029 -59.330029 -179.999222 -7.951346 1.320369 117.767235
72 -40.078083 -93.503029 -59.330029 -179.999222 -7.951346 1.320369 117.767235
73 -40.078083 -93.503029 -59.330029 -179.999222 -7.951346 1.320369 117.767235
74 -40.078083 -93.503029 -59.330029 -179.999222 -7.951346 1.320369 117.767235
[arm_lock_top_part1]
71 -47.532562 61.554470 78.379471 0.001509 0.001798 -10.001317 110.415756
72 -47.532562 61.554470 78.379471 0.001509 0.001798 -10.001317 110.415756
73 -47.532562 61.554470 78.379471 0.001509 0.001798 -10.001317 110.415756
74 -47.532562 61.554470 78.379471 0.001509 0.001798 -10.001317 110.415756
[arm_lock_top_part2]
71 -45.622692 13.709888 63.393517 0.001544 0.001768 -7.724405 79.297722
72 -45.622692 13.709888 63.393517 0.001544 0.001768 -7.724405 79.297722
73 -45.622692 13.709888 63.393517 0.001544 0.001768 -7.724405 79.297722
74 -45.622692 13.709888 63.393517 0.001544 0.001768 -7.724405 79.297722
[arm_lock_top_part3]
71 -43.788521 -73.747162 72.061607 0.001593 0.001724 -4.534721 112.022110
72 -43.788521 -73.747162 72.061607 0.001593 0.001724 -4.534721 112.022110
73 -43.788521 -73.747162 72.061607 0.001593 0.001724 -4.534721 112.022110
74 -43.788521 -73.747162 72.061607 0.001593 0.001724 -4.534721 112.022110
[front_lower_left_part1]
71 -46.798580 475.070923 -43.538815 0.000000 0.000003 -0.000000 479.351746
72 -46.798580 475.070923 -43.538815 0.000000 0.000003 -0.000000 479.351746
73 -46.798580 475.070923 -43.538815 0.000000 0.000003 -0.000000 479.351746
74 -46.798580 475.070923 -43.538815 0.000000 0.000003 -0.000000 479.351746
[front_lower_right_part1]
71 26.433397 475.070923 -43.538826 0.000000 -0.000000 -0.000000 477.793640
72 26.433397 475.070923 -43.538826 0.000000 -0.000000 -0.000000 477.793640
73 26.433397 475.070923 -43.538826 0.000000 -0.000000 -0.000000 477.793640
74 26.433397 475.070923 -43.538826 0.000000 -0.000000 -0.000000 477.793640
[front_top_left_part]
71 -47.897255 494.788696 7.031011 -0.000000 0.000003 -0.000001 497.151367
72 -47.897255 494.788696 7.031011 -0.000000 0.000003 -0.000001 497.151367
73 -47.897255 494.788696 7.031011 -0.000000 0.000003 -0.000001 497.151367
74 -47.897255 494.788696 7.031011 -0.000000 0.000003 -0.000001 497.151367
[front_top_right_part1]
71 27.532097 494.788727 7.031008 0.000000 -0.000000 -0.000000 495.604004
72 27.532097 494.788727 7.031008 0.000000 -0.000000 -0.000000 495.604004
73 27.532097 494.788727 7.031008 0.000000 -0.000000 -0.000000 495.604004
74 27.532097 494.788727 7.031008 0.000000 -0.000000 -0.000000 495.604004
[scope_part1]
71 -10.754304 87.338959 156.453140 -165.104828 70.568901 -165.920868 179.503021
72 -10.754304 87.338959 156.453140 -166.313721 68.815056 -167.210266 179.503021
73 -10.754304 87.338959 156.453140 -167.273544 67.164879 -168.243988 179.503021
74 -10.754304 87.338959 156.453140 -168.039856 65.640717 -169.077408 179.503021
[scope_part2]
71 -10.754300 82.597374 156.860001 -173.561432 40.337482 -175.819656 177.603607
72 -10.754300 82.597374 156.860001 -173.751114 38.215534 -176.126450 177.603607
73 -10.754300 82.597374 156.860001 -173.915634 36.241142 -176.393723 177.603607
74 -10.754300 82.597374 156.860001 -174.050797 34.416504 -176.628464 177.603607
[front_lower_left_part2]
71 -55.193569 141.618454 32.268322 0.001886 0.001397 16.927948 155.381348
72 -55.193569 141.618454 32.268322 0.001886 0.001397 16.927948 155.381348
73 -55.193569 141.618454 32.268322 0.001886 0.001397 16.927948 155.381348
74 -55.193569 141.618454 32.268322 0.001874 0.001413 15.988484 155.381348
[front_lower_left_part3]
71 -10.943815 108.509422 -11.124855 33.369846 -15.979286 -13.534085 109.625839
72 -10.943815 108.509422 -11.124855 33.419945 -15.865546 -13.715985 109.625839
73 -10.943815 108.509422 -11.124855 33.434280 -15.826729 -13.774166 109.625839
74 -10.943815 108.509422 -11.124855 33.433483 -15.835763 -13.761204 109.625839
[front_lower_right_part2]
71 55.193596 141.618317 32.268330 0.001480 0.001822 -11.824665 155.381226
72 55.193596 141.618317 32.268330 0.001480 0.001822 -11.824665 155.381226
73 55.193596 141.618317 32.268330 0.001480 0.001822 -11.824665 155.381226
74 55.193596 141.618317 32.268330 0.001490 0.001813 -11.173506 155.381226
[front_lower_right_part3]
71 10.943837 108.509453 -11.124846 32.421989 17.983191 10.292853 109.625862
72 10.943837 108.509453 -11.124846 32.583675 17.667221 10.815413 109.625862
73 10.943837 108.509453 -11.124846 32.730274 17.369228 11.308806 109.625862
74 10.943837 108.509453 -11.124846 32.871464 17.077461 11.776508 109.625862
[front_top_left_part2]
71 -68.606697 132.667709 55.914635 11.079756 0.000004 13.726176 159.480545
72 -68.606697 132.667709 55.914627 11.079756 0.000004 13.726176 159.480545
73 -68.606697 132.667694 55.914623 11.079756 0.000004 13.726176 159.480530
74 -68.606697 132.667694 55.914616 11.079756 0.000004 13.726176 159.480530
[front_top_left_part3]
71 -28.216480 149.656799 49.959614 -25.878572 -3.653789 -66.020325 160.278793
72 -28.216480 149.656799 49.959614 -25.892494 -3.573855 -65.856392 160.278793
73 -28.216480 149.656799 49.959614 -25.896824 -3.516464 -65.735336 160.278793
74 -28.216480 149.656799 49.959614 -25.905636 -3.479219 -65.659271 160.278793
[front_top_right_part2]
71 62.566193 124.344559 58.663383 14.077118 -1.062711 -17.004618 151.054581
72 62.566193 124.344559 58.663387 14.077118 -1.062711 -17.004618 151.054596
73 62.566185 124.344559 58.663395 14.077118 -1.062711 -17.004618 151.054581
74 62.566185 124.344559 58.663399 14.077118 -1.062711 -17.004618 151.054581
[front_top_right_part3]
71 28.216452 149.656952 49.959507 -24.723932 8.709850 76.737122 160.278885
72 28.216452 149.656952 49.959507 -24.723932 8.709850 76.737122 160.278885
73 28.216452 149.656952 49.959507 -24.723932 8.709850 76.737122 160.278885
74 28.216452 149.656952 49.959507 -24.723932 8.709850 76.737122 160.278885
